<?xml version="1.0" encoding="UTF-8" standalone="no"?>
<!-- Created with Inkscape (http://www.inkscape.org/) -->

<svg
   xmlns:dc="http://purl.org/dc/elements/1.1/"
   xmlns:cc="http://creativecommons.org/ns#"
   xmlns:rdf="http://www.w3.org/1999/02/22-rdf-syntax-ns#"
   xmlns:svg="http://www.w3.org/2000/svg"
   xmlns="http://www.w3.org/2000/svg"
   xmlns:sodipodi="http://sodipodi.sourceforge.net/DTD/sodipodi-0.dtd"
   xmlns:inkscape="http://www.inkscape.org/namespaces/inkscape"
   width="132.29166mm"
   height="21.507044mm"
   viewBox="0 0 132.29166 21.507044"
   version="1.1"
   id="svg8"
   inkscape:version="0.92.4 (5da689c313, 2019-01-14)"
   sodipodi:docname="la-chouette-agence-logo.svg">
  <defs
     id="defs2">
    <inkscape:perspective
       sodipodi:type="inkscape:persp3d"
       inkscape:vp_x="0 : 148.49999 : 1"
       inkscape:vp_y="0 : 999.99993 : 0"
       inkscape:vp_z="210.00001 : 148.49999 : 1"
       inkscape:persp3d-origin="105 : 98.999994 : 1"
       id="perspective4568" />
  </defs>
  <sodipodi:namedview
     id="base"
     pagecolor="#ffffff"
     bordercolor="#666666"
     borderopacity="1.0"
     inkscape:pageopacity="0.0"
     inkscape:pageshadow="2"
     inkscape:zoom="1.4142136"
     inkscape:cx="381.81469"
     inkscape:cy="-100.47479"
     inkscape:document-units="mm"
     inkscape:current-layer="text4675"
     showgrid="false"
     inkscape:snap-global="true"
     inkscape:window-width="1920"
     inkscape:window-height="1027"
     inkscape:window-x="-8"
     inkscape:window-y="-8"
     inkscape:window-maximized="1"
     fit-margin-top="0"
     fit-margin-left="0"
     fit-margin-right="0"
     fit-margin-bottom="0" />
  <metadata
     id="metadata5">
    <rdf:RDF>
      <cc:Work
         rdf:about="">
        <dc:format>image/svg+xml</dc:format>
        <dc:type
           rdf:resource="http://purl.org/dc/dcmitype/StillImage" />
        <dc:title />
      </cc:Work>
    </rdf:RDF>
  </metadata>
  <g
     inkscape:label="Calque 1"
     inkscape:groupmode="layer"
     id="layer1"
     transform="translate(-36.476153,-30.975064)">
    <g
       id="g826" />
    <path
       style="opacity:1;fill:#000000;fill-opacity:1;stroke:none;stroke-width:0.95940894;stroke-miterlimit:4;stroke-dasharray:none;stroke-opacity:1"
       d="m 37.096363,30.975064 -0.54395,0.620192 2.462086,2.159225 -2.518746,2.525976 -0.0196,2.88368 1.373591,1.53904 -0.02893,5.07999 3.974598,4.03637 h 4.008656 0.0277 4.008655 l 3.974604,-4.03637 -0.02893,-5.07999 1.373586,-1.53904 -0.0196,-2.88368 -2.462996,-2.46992 2.52628,-2.215281 -0.543949,-0.620192 -2.961437,2.597097 -4.860597,0.01203 -1.012556,2.114626 v 5.8e-4 l -0.01388,-5.8e-4 -1.012561,-2.114626 -4.740355,-0.01171 z m 2.356913,3.421911 0.295629,0.0021 1.923868,1.687002 h -1.348876 v 3.4192 h 3.429143 v -1.59479 l 1.704174,1.49443 -1.092717,1.91211 h -4.907605 l -2.181825,-2.36717 -0.01901,-2.28641 z m 12.72933,0 2.197197,2.266202 -0.01895,2.28641 -2.18183,2.36715 h -4.806649 l -1.077351,-1.9091 1.690009,-1.48207 v 1.58604 h 3.429145 v -3.4192 h -1.338928 l 1.932301,-1.69453 z m -1.434462,0.0086 -4.867221,4.268422 -0.0029,-0.005 -0.0029,0.005 -4.866621,-4.26782 3.328794,0.0187 1.48087,2.94819 1.48087,-2.94819 z m -9.674168,2.428332 h 1.451333 l 0.477657,0.41889 v 1.50468 h -1.92899 z m 8.148699,0.006 h 1.441395 v 1.92357 h -1.928989 v -1.49595 z m -3.3309,3.21428 0.92577,1.64119 -0.917332,1.60443 -0.925769,-1.6409 z m -7.360349,1.36003 0.448119,0.51622 -0.0389,3.93543 -0.457759,-0.44812 z m 14.573037,0 0.04851,4.00354 -0.457758,0.44812 -0.0389,-3.93543 z m -13.647571,0.68166 h 0.01446 l -0.01446,3e-4 z m 0.258265,0 h 4.630353 l 1.548977,2.74599 1.56947,-2.74599 h 4.456769 l 0.0046,4.58818 -2.415678,2.38433 h -3.595446 -0.19287 -3.595497 l -2.415678,-2.38433 z m 12.449372,0 h 0.01446 v 3e-4 z m -12.804972,9.60902 v 0.77721 h 5.196002 v -0.77721 z m 7.776219,0 v 0.77721 h 5.196003 v -0.77721 z"
       id="rect4549"
       inkscape:connector-curvature="0" />
    <g
       aria-label="La chouette agence"
       style="font-style:normal;font-variant:normal;font-weight:normal;font-stretch:normal;font-size:11.37172794px;line-height:1.25;font-family:'Kingthings Petrock Light';-inkscape-font-specification:'Kingthings Petrock Light, ';letter-spacing:0px;word-spacing:0px;fill:#000000;fill-opacity:1;stroke:none;stroke-width:0.2842932"
       id="text4675">
      <path
         d="m 62.446604,37.469514 0.09625,0.207297 q 0.340559,-0.333156 0.466418,1.228976 l -0.03702,5.974599 q 0.0074,1.265993 0.614488,1.64357 l 0.91803,-0.755154 q 0.533049,-0.421998 1.154941,0.125859 0.629295,0.540453 1.221572,0.651505 l 1.036486,-1.051292 -0.14807,-0.162877 q -0.273928,0.214701 -0.488629,0.118456 -0.207297,-0.103649 -0.651505,-0.503436 -0.444208,-0.407191 -1.103117,-0.310946 l -1.199362,0.644102 q -0.125858,-0.459015 -0.111052,-0.89582 l -0.01481,-5.989406 q -0.0074,-1.310414 -0.651506,-1.621359 z"
         style="font-style:normal;font-variant:normal;font-weight:normal;font-stretch:normal;font-size:15.16230392px;font-family:'Kingthings Petrock Light';-inkscape-font-specification:'Kingthings Petrock Light, ';stroke-width:0.2842932"
         id="path817" />
      <path
         d="m 71.153084,39.846027 q -1.103117,0.01481 -2.021147,0.74775 -0.910627,0.72554 -0.451612,1.636167 l 1.206766,-0.732943 q -0.236911,-1.25859 1.30301,-1.125328 1.547325,0.133263 1.347431,2.021147 -1.199362,-0.540453 -2.154409,-0.310945 -0.947644,0.229507 -1.747219,1.199362 -0.636698,0.932837 -0.40719,1.591745 0.236911,0.658909 0.755153,1.140134 0.525647,0.473822 1.169748,0.518243 0.651506,0.04442 1.095714,-0.259121 0.444208,-0.303542 1.30301,-1.0661 0.07403,0.940241 0.607085,1.377046 l 1.206765,-1.04389 -0.09625,-0.170279 q -0.614488,0.496032 -0.681119,-1.154941 l 0.0074,-2.635635 Q 73.559211,40.593777 72.907706,40.2162 72.256201,39.83122 71.153084,39.846027 Z m 1.058696,3.568472 0.296139,-0.399787 0.0074,1.747218 q -0.940241,0.940241 -1.613956,0.888417 -0.673716,-0.05923 -1.132731,-0.451612 -0.459015,-0.399787 -0.666312,-0.910627 -0.207297,-0.518243 0.08144,-1.006871 0.288735,-0.488629 1.140134,-0.570068 0.851399,-0.08144 1.887885,0.70333 z"
         style="font-style:normal;font-variant:normal;font-weight:normal;font-stretch:normal;font-size:15.16230392px;font-family:'Kingthings Petrock Light';-inkscape-font-specification:'Kingthings Petrock Light, ';stroke-width:0.2842932"
         id="path819" />
      <path
         d="m 81.384677,39.964483 q -0.414594,0.162876 -0.777364,0.399787 -0.36277,0.229507 -0.74775,0.540453 -2.472759,2.013744 -0.740347,4.479099 0.488629,0.599681 0.992065,0.866205 0.503436,0.259122 1.199362,0.259122 0.703329,0.0074 1.377045,-0.695926 0.681119,-0.70333 1.162345,-1.414063 l -0.236911,-0.207297 q -0.185087,0.244315 -0.473822,0.55526 -0.288736,0.303543 -0.718137,0.496033 -0.429401,0.185086 -0.969854,0.118455 -0.540454,-0.06663 -1.080907,-0.57747 -0.53305,-0.518243 -0.866206,-1.502904 -0.333156,-0.984662 0.04442,-1.554729 0.384981,-0.57747 1.103117,-0.762557 0.718136,-0.185087 1.206765,0.06663 0.488629,0.244315 0.925434,1.073503 l 0.866206,-0.72554 q -0.140666,-0.584874 -0.547857,-0.977258 -0.399787,-0.399787 -0.851399,-0.503436 -0.451611,-0.103648 -0.866206,0.06663 z"
         style="font-style:normal;font-variant:normal;font-weight:normal;font-stretch:normal;font-size:15.16230392px;font-family:'Kingthings Petrock Light';-inkscape-font-specification:'Kingthings Petrock Light, ';stroke-width:0.2842932"
         id="path821" />
      <path
         d="m 84.745852,37.24741 q 0.273928,0.488628 0.236911,1.465886 -0.02961,6.389194 0.09624,6.922244 0.133263,0.525646 0.644102,0.888416 l 0.947644,-0.806978 q -0.399787,-0.547857 -0.481225,-1.2808 -0.07403,-0.732944 0.0074,-2.783705 0.977258,-1.043889 2.19883,-1.066099 1.228976,-0.02221 1.043889,2.235847 -0.03702,2.221041 0.103649,2.739284 0.148069,0.518243 0.681119,0.932837 l 0.881013,-0.866206 q -0.421998,-0.06663 -0.525646,-0.94024 -0.103649,-0.881013 -0.02961,-2.435742 0.05182,-0.955047 -0.155473,-1.525114 -0.207297,-0.577471 -0.91803,-0.843996 -0.70333,-0.266524 -1.362239,-0.08144 -0.658908,0.177683 -1.103116,0.55526 -0.444209,0.377577 -0.784768,0.584874 l -0.02961,-2.92437 q 0.03702,-1.043889 -0.318349,-1.45108 z"
         style="font-style:normal;font-variant:normal;font-weight:normal;font-stretch:normal;font-size:15.16230392px;font-family:'Kingthings Petrock Light';-inkscape-font-specification:'Kingthings Petrock Light, ';stroke-width:0.2842932"
         id="path823" />
      <path
         d="m 94.355553,39.742378 q -1.243782,0.821786 -1.762025,1.42887 -0.51084,0.607084 -0.718137,1.221572 -0.207297,0.614488 -0.07403,1.539922 0.140666,0.925433 1.080906,1.784236 0.940241,0.851399 1.502904,0.851399 0.562664,0.0074 1.769429,-1.103117 0.466419,-0.421998 0.888417,-0.977258 0.429401,-0.562664 0.547856,-1.177152 0.125859,-0.614488 -0.06663,-1.340027 -0.185087,-0.72554 -1.058696,-1.584343 -0.873609,-0.858802 -2.109989,-0.644102 z m -0.392383,0.881013 q 0.851398,-0.19249 1.865674,1.0661 1.014275,1.258589 0.799574,2.154409 -0.2147,0.89582 -0.925433,1.436273 -0.710733,0.53305 -1.510308,-0.118455 -0.799575,-0.658909 -1.273397,-1.406659 -0.473822,-0.747751 -0.140665,-1.843464 0.333156,-1.103117 1.184555,-1.288204 z"
         style="font-style:normal;font-variant:normal;font-weight:normal;font-stretch:normal;font-size:15.16230392px;font-family:'Kingthings Petrock Light';-inkscape-font-specification:'Kingthings Petrock Light, ';stroke-width:0.2842932"
         id="path825" />
      <path
         d="m 105.3349,45.568908 -0.0962,-0.125859 q -0.68112,0.444209 -0.66631,-1.288203 0.19249,-3.146474 0.12586,-3.605489 -0.0666,-0.466419 -0.70333,-0.888417 l -1.16975,0.762558 0.0592,0.148069 q 0.59968,-0.347963 0.59968,0.74775 0,1.08831 -0.0814,3.139071 -1.42146,1.554728 -2.46535,1.243783 -1.036489,-0.318349 -0.88102,-2.376514 0.037,-2.22104 -0.0148,-2.746687 -0.05183,-0.533049 -0.695929,-0.925433 l -1.125327,0.792171 0.09624,0.17028 q 0.518243,-0.266525 0.592278,0.74775 0.07403,1.014275 0,2.569004 -0.05182,0.955047 0.236911,1.591746 0.288735,0.629294 1.021682,0.888416 0.73294,0.259121 1.61395,-0.118456 0.88102,-0.377577 1.59175,-1.125327 -0.0962,1.029082 0.47382,1.414063 z"
         style="font-style:normal;font-variant:normal;font-weight:normal;font-stretch:normal;font-size:15.16230392px;font-family:'Kingthings Petrock Light';-inkscape-font-specification:'Kingthings Petrock Light, ';stroke-width:0.2842932"
         id="path827" />
      <path
         d="m 109.42161,39.905255 q -1.15494,-0.177683 -2.16181,0.718136 -1.00687,0.89582 -1.2882,2.102585 -0.28133,1.199362 0.17028,2.235848 0.45901,1.029082 1.69539,1.465887 1.00687,0.333156 2.09518,-0.473822 1.08831,-0.814382 1.20677,-1.45108 l -0.22211,-0.177683 q -0.88841,1.265993 -1.73241,1.221572 -0.84399,-0.04442 -1.26599,-0.377577 -0.41459,-0.333156 -0.6441,-0.710733 l 2.05076,-1.362238 q 1.56213,-0.969855 1.40666,-1.991533 -0.15548,-1.021679 -1.31042,-1.199362 z m -2.63563,2.332092 q 0.007,-0.681119 0.55526,-1.265993 0.54786,-0.584874 1.19196,-0.421997 0.6515,0.162876 0.90322,0.881012 0.25912,0.718137 -0.0592,1.103117 -0.31835,0.377577 -2.29507,1.495501 -0.17028,-0.392384 -0.23691,-0.755154 -0.0666,-0.36277 -0.0592,-1.036486 z"
         style="font-style:normal;font-variant:normal;font-weight:normal;font-stretch:normal;font-size:15.16230392px;font-family:'Kingthings Petrock Light';-inkscape-font-specification:'Kingthings Petrock Light, ';stroke-width:0.2842932"
         id="path829" />
      <path
         d="m 112.71616,37.773056 q 0.51824,-0.08884 0.34796,2.124795 l -0.62189,0.02961 -1.01428,1.021679 0.17028,0.288735 q 0.47382,-0.540453 1.37705,-0.451611 -0.14807,3.931241 0,4.516115 0.14807,0.577471 0.77736,1.191959 0.48863,-0.481226 1.86568,-1.495501 l -0.0888,-0.347963 q -1.40666,0.977258 -1.51771,0.0074 -0.11105,-0.969855 0.0222,-3.812787 h 0.90323 l 0.68112,-0.777364 -0.0592,-0.148069 -1.47329,0.03702 V 37.99516 q -0.0814,-0.636698 -0.43681,-0.940241 z"
         style="font-style:normal;font-variant:normal;font-weight:normal;font-stretch:normal;font-size:15.16230392px;font-family:'Kingthings Petrock Light';-inkscape-font-specification:'Kingthings Petrock Light, ';stroke-width:0.2842932"
         id="path831" />
      <path
         d="m 117.27669,37.773056 q 0.51825,-0.08884 0.34797,2.124795 l -0.62189,0.02961 -1.01428,1.021679 0.17028,0.288735 q 0.47382,-0.540453 1.37705,-0.451611 -0.14807,3.931241 0,4.516115 0.14807,0.577471 0.77736,1.191959 0.48863,-0.481226 1.86567,-1.495501 l -0.0888,-0.347963 q -1.40666,0.977258 -1.51771,0.0074 -0.11105,-0.969855 0.0222,-3.812787 h 0.90323 l 0.68111,-0.777364 -0.0592,-0.148069 -1.47329,0.03702 V 37.99516 q -0.0814,-0.636698 -0.43681,-0.940241 z"
         style="font-style:normal;font-variant:normal;font-weight:normal;font-stretch:normal;font-size:15.16230392px;font-family:'Kingthings Petrock Light';-inkscape-font-specification:'Kingthings Petrock Light, ';stroke-width:0.2842932"
         id="path833" />
      <path
         d="m 124.34701,39.905255 q -1.15495,-0.177683 -2.16182,0.718136 -1.00687,0.89582 -1.2882,2.102585 -0.28133,1.199362 0.17028,2.235848 0.45901,1.029082 1.69539,1.465887 1.00688,0.333156 2.09519,-0.473822 1.08831,-0.814382 1.20676,-1.45108 l -0.2221,-0.177683 q -0.88842,1.265993 -1.73242,1.221572 -0.84399,-0.04442 -1.26599,-0.377577 -0.41459,-0.333156 -0.6441,-0.710733 l 2.05076,-1.362238 q 1.56213,-0.969855 1.40666,-1.991533 -0.15547,-1.021679 -1.31041,-1.199362 z m -2.63564,2.332092 q 0.007,-0.681119 0.55526,-1.265993 0.54786,-0.584874 1.19196,-0.421997 0.6515,0.162876 0.90322,0.881012 0.25912,0.718137 -0.0592,1.103117 -0.31835,0.377577 -2.29508,1.495501 -0.17028,-0.392384 -0.23691,-0.755154 -0.0666,-0.36277 -0.0592,-1.036486 z"
         style="font-style:normal;font-variant:normal;font-weight:normal;font-stretch:normal;font-size:15.16230392px;font-family:'Kingthings Petrock Light';-inkscape-font-specification:'Kingthings Petrock Light, ';stroke-width:0.2842932"
         id="path835" />
      <path
         d="m 133.04608,39.846027 q -1.10312,0.01481 -2.02115,0.74775 -0.91062,0.72554 -0.45161,1.636167 l 1.20677,-0.732943 q -0.23691,-1.25859 1.30301,-1.125328 1.54732,0.133263 1.34743,2.021147 -1.19936,-0.540453 -2.15441,-0.310945 -0.94764,0.229507 -1.74722,1.199362 -0.6367,0.932837 -0.40719,1.591745 0.23691,0.658909 0.75515,1.140134 0.52565,0.473822 1.16975,0.518243 0.65151,0.04442 1.09572,-0.259121 0.4442,-0.303542 1.30301,-1.0661 0.074,0.940241 0.60708,1.377046 l 1.20677,-1.04389 -0.0962,-0.170279 q -0.61449,0.496032 -0.68112,-1.154941 l 0.007,-2.635635 q -0.037,-0.984662 -0.68853,-1.362239 -0.6515,-0.38498 -1.75462,-0.370173 z m 1.0587,3.568472 0.29614,-0.399787 0.007,1.747218 q -0.94024,0.940241 -1.61396,0.888417 -0.67371,-0.05923 -1.13273,-0.451612 -0.45901,-0.399787 -0.66631,-0.910627 -0.2073,-0.518243 0.0814,-1.006871 0.28873,-0.488629 1.14013,-0.570068 0.8514,-0.08144 1.88789,0.70333 z"
         style="font-style:normal;font-variant:normal;font-weight:normal;font-stretch:normal;font-size:15.16230392px;font-family:'Kingthings Petrock Light';-inkscape-font-specification:'Kingthings Petrock Light, ';stroke-width:0.2842932"
         id="path837" />
      <path
         d="m 141.87101,37.869301 q 1.08091,0.651505 0.14067,2.376513 -1.09571,-0.614488 -2.32469,-0.140666 -1.22898,0.466419 -1.93231,1.303011 -0.69592,0.836592 -0.71073,1.858271 -0.007,1.014275 0.8588,1.64357 0.86621,0.621891 2.28027,-0.03702 0.25912,0.673716 0.92544,0.592278 0.66631,-0.08884 1.22157,0.244314 0.55526,0.333156 0.15547,1.310414 -0.39238,0.977258 -1.77683,0.992065 -1.38445,0.02221 -2.28027,-0.681119 -0.88842,-0.695926 -0.31835,-1.140134 l -0.12586,-0.177684 -1.36224,1.08831 q 0.82919,1.502905 2.23585,1.828657 1.40666,0.325753 2.3543,-0.229507 0.94765,-0.547857 1.36965,-1.014276 0.4294,-0.466418 0.72554,-1.066099 0.30354,-0.592278 0.20729,-1.406659 -0.0888,-0.821785 -1.16974,-0.903223 -1.08091,-0.08884 -0.88842,-0.214701 0.19249,-0.125859 0.47382,-0.421998 0.28133,-0.296138 0.73294,-1.162344 0.45902,-0.87361 -0.48862,-2.072971 1.5103,-1.303011 1.33262,-2.258058 -0.17768,-0.955048 -0.69593,-1.125328 z m -1.68058,2.73188 q 0.63669,0.222104 0.98466,0.703329 0.35536,0.473822 0.39238,1.399256 0.0444,0.925434 -0.67371,1.377045 -0.71074,0.451612 -1.39186,0.177683 -0.67371,-0.273928 -1.09571,-0.947644 -0.41459,-0.681119 -0.29614,-1.30301 0.11846,-0.629295 0.78477,-1.125327 0.66631,-0.503436 1.29561,-0.281332 z"
         style="font-style:normal;font-variant:normal;font-weight:normal;font-stretch:normal;font-size:15.16230392px;font-family:'Kingthings Petrock Light';-inkscape-font-specification:'Kingthings Petrock Light, ';stroke-width:0.2842932"
         id="path839" />
      <path
         d="m 147.5939,39.905255 q -1.15494,-0.177683 -2.16182,0.718136 -1.00687,0.89582 -1.2882,2.102585 -0.28133,1.199362 0.17028,2.235848 0.45902,1.029082 1.69539,1.465887 1.00688,0.333156 2.09519,-0.473822 1.08831,-0.814382 1.20676,-1.45108 l -0.2221,-0.177683 q -0.88842,1.265993 -1.73241,1.221572 -0.844,-0.04442 -1.266,-0.377577 -0.41459,-0.333156 -0.6441,-0.710733 l 2.05076,-1.362238 q 1.56213,-0.969855 1.40666,-1.991533 -0.15547,-1.021679 -1.31041,-1.199362 z m -2.63564,2.332092 q 0.007,-0.681119 0.55526,-1.265993 0.54786,-0.584874 1.19196,-0.421997 0.65151,0.162876 0.90322,0.881012 0.25913,0.718137 -0.0592,1.103117 -0.31835,0.377577 -2.29508,1.495501 -0.17028,-0.392384 -0.23691,-0.755154 -0.0666,-0.36277 -0.0592,-1.036486 z"
         style="font-style:normal;font-variant:normal;font-weight:normal;font-stretch:normal;font-size:15.16230392px;font-family:'Kingthings Petrock Light';-inkscape-font-specification:'Kingthings Petrock Light, ';stroke-width:0.2842932"
         id="path841" />
      <path
         d="m 149.78533,40.57897 0.0962,0.125859 q 0.68112,-0.444208 0.66631,1.288204 -0.074,3.146474 0.0222,3.642507 0.0962,0.488629 0.91063,0.881012 l 1.08091,-0.762557 -0.0592,-0.148069 q -0.59968,0.347963 -0.73294,-0.755154 -0.13327,-1.11052 -0.0518,-3.161281 1.42147,-1.554729 2.45795,-1.23638 1.04389,0.310946 0.88842,2.36911 -0.037,2.221041 0.0148,2.754091 0.0518,0.525646 0.69592,0.91803 l 1.12533,-0.792171 -0.0962,-0.17028 q -0.51824,0.266525 -0.59227,-0.74775 -0.074,-1.014276 0,-2.569004 0.0518,-0.955047 -0.23691,-1.584342 -0.28874,-0.636699 -1.02168,-0.89582 -0.73295,-0.259121 -1.61396,0.118456 -0.88101,0.377576 -1.59175,1.125327 0.0666,-0.910627 -0.50343,-1.295607 z"
         style="font-style:normal;font-variant:normal;font-weight:normal;font-stretch:normal;font-size:15.16230392px;font-family:'Kingthings Petrock Light';-inkscape-font-specification:'Kingthings Petrock Light, ';stroke-width:0.2842932"
         id="path843" />
      <path
         d="m 160.39449,39.964483 q -0.41459,0.162876 -0.77736,0.399787 -0.36277,0.229507 -0.74775,0.540453 -2.47276,2.013744 -0.74035,4.479099 0.48863,0.599681 0.99207,0.866205 0.50343,0.259122 1.19936,0.259122 0.70333,0.0074 1.37705,-0.695926 0.68111,-0.70333 1.16234,-1.414063 l -0.23691,-0.207297 q -0.18509,0.244315 -0.47382,0.55526 -0.28874,0.303543 -0.71814,0.496033 -0.4294,0.185086 -0.96985,0.118455 -0.54046,-0.06663 -1.08091,-0.57747 -0.53305,-0.518243 -0.86621,-1.502904 -0.33315,-0.984662 0.0444,-1.554729 0.38498,-0.57747 1.10312,-0.762557 0.71814,-0.185087 1.20677,0.06663 0.48863,0.244315 0.92543,1.073503 l 0.86621,-0.72554 q -0.14067,-0.584874 -0.54786,-0.977258 -0.39979,-0.399787 -0.8514,-0.503436 -0.45161,-0.103648 -0.86621,0.06663 z"
         style="font-style:normal;font-variant:normal;font-weight:normal;font-stretch:normal;font-size:15.16230392px;font-family:'Kingthings Petrock Light';-inkscape-font-specification:'Kingthings Petrock Light, ';stroke-width:0.2842932"
         id="path845" />
      <path
         d="m 167.05021,39.905255 q -1.15494,-0.177683 -2.16181,0.718136 -1.00687,0.89582 -1.28821,2.102585 -0.28133,1.199362 0.17028,2.235848 0.45902,1.029082 1.6954,1.465887 1.00687,0.333156 2.09518,-0.473822 1.08831,-0.814382 1.20677,-1.45108 l -0.22211,-0.177683 q -0.88841,1.265993 -1.73241,1.221572 -0.844,-0.04442 -1.26599,-0.377577 -0.4146,-0.333156 -0.6441,-0.710733 l 2.05076,-1.362238 q 1.56213,-0.969855 1.40665,-1.991533 -0.15547,-1.021679 -1.31041,-1.199362 z m -2.63563,2.332092 q 0.007,-0.681119 0.55526,-1.265993 0.54785,-0.584874 1.19195,-0.421997 0.65151,0.162876 0.90323,0.881012 0.25912,0.718137 -0.0592,1.103117 -0.31835,0.377577 -2.29508,1.495501 -0.17027,-0.392384 -0.23691,-0.755154 -0.0666,-0.36277 -0.0592,-1.036486 z"
         style="font-style:normal;font-variant:normal;font-weight:normal;font-stretch:normal;font-size:15.16230392px;font-family:'Kingthings Petrock Light';-inkscape-font-specification:'Kingthings Petrock Light, ';stroke-width:0.2842932"
         id="path847" />
    </g>
  </g>
</svg>
