<?xml version="1.0" encoding="UTF-8" standalone="no"?>
<!-- Created with Inkscape (http://www.inkscape.org/) -->

<svg
   xmlns:dc="http://purl.org/dc/elements/1.1/"
   xmlns:cc="http://creativecommons.org/ns#"
   xmlns:rdf="http://www.w3.org/1999/02/22-rdf-syntax-ns#"
   xmlns:svg="http://www.w3.org/2000/svg"
   xmlns="http://www.w3.org/2000/svg"
   xmlns:sodipodi="http://sodipodi.sourceforge.net/DTD/sodipodi-0.dtd"
   xmlns:inkscape="http://www.inkscape.org/namespaces/inkscape"
   width="132.29166mm"
   height="21.507044mm"
   viewBox="0 0 132.29166 21.507044"
   version="1.1"
   id="svg8"
   inkscape:version="0.92.4 (5da689c313, 2019-01-14)"
   sodipodi:docname="la-chouette-agence-logo.svg">
  <defs
     id="defs2">
    <inkscape:perspective
       sodipodi:type="inkscape:persp3d"
       inkscape:vp_x="0 : 148.49999 : 1"
       inkscape:vp_y="0 : 999.99993 : 0"
       inkscape:vp_z="210.00001 : 148.49999 : 1"
       inkscape:persp3d-origin="105 : 98.999994 : 1"
       id="perspective4568" />
  </defs>
  <sodipodi:namedview
     id="base"
     pagecolor="#ffffff"
     bordercolor="#666666"
     borderopacity="1.0"
     inkscape:pageopacity="0.0"
     inkscape:pageshadow="2"
     inkscape:zoom="1.4142136"
     inkscape:cx="118.11356"
     inkscape:cy="-22.031573"
     inkscape:document-units="mm"
     inkscape:current-layer="layer1"
     showgrid="false"
     inkscape:snap-global="true"
     inkscape:window-width="1920"
     inkscape:window-height="1027"
     inkscape:window-x="-8"
     inkscape:window-y="-8"
     inkscape:window-maximized="1"
     fit-margin-top="0"
     fit-margin-left="0"
     fit-margin-right="0"
     fit-margin-bottom="0" />
  <metadata
     id="metadata5">
    <rdf:RDF>
      <cc:Work
         rdf:about="">
        <dc:format>image/svg+xml</dc:format>
        <dc:type
           rdf:resource="http://purl.org/dc/dcmitype/StillImage" />
        <dc:title></dc:title>
      </cc:Work>
    </rdf:RDF>
  </metadata>
  <g
     inkscape:label="Calque 1"
     inkscape:groupmode="layer"
     id="layer1"
     transform="translate(-36.476153,-30.975064)">
    <g
       id="g826" />
    <path
       style="opacity:1;fill:#000000;fill-opacity:1;stroke:none;stroke-width:0.95940894;stroke-miterlimit:4;stroke-dasharray:none;stroke-opacity:1"
       d="m 37.096363,30.975064 -0.54395,0.620192 2.462086,2.159225 -2.518746,2.525976 -0.0196,2.88368 1.373591,1.53904 -0.02893,5.07999 3.974598,4.03637 h 4.008656 0.0277 4.008655 l 3.974604,-4.03637 -0.02893,-5.07999 1.373586,-1.53904 -0.0196,-2.88368 -2.462996,-2.46992 2.52628,-2.215281 -0.543949,-0.620192 -2.961437,2.597097 -4.860597,0.01203 -1.012556,2.114626 v 5.8e-4 l -0.01388,-5.8e-4 -1.012561,-2.114626 -4.740355,-0.01171 z m 2.356913,3.421911 0.295629,0.0021 1.923868,1.687002 h -1.348876 v 3.4192 h 3.429143 v -1.59479 l 1.704174,1.49443 -1.092717,1.91211 h -4.907605 l -2.181825,-2.36717 -0.01901,-2.28641 z m 12.72933,0 2.197197,2.266202 -0.01895,2.28641 -2.18183,2.36715 h -4.806649 l -1.077351,-1.9091 1.690009,-1.48207 v 1.58604 h 3.429145 v -3.4192 h -1.338928 l 1.932301,-1.69453 z m -1.434462,0.0086 -4.867221,4.268422 -0.0029,-0.005 -0.0029,0.005 -4.866621,-4.26782 3.328794,0.0187 1.48087,2.94819 1.48087,-2.94819 z m -9.674168,2.428332 h 1.451333 l 0.477657,0.41889 v 1.50468 h -1.92899 z m 8.148699,0.006 h 1.441395 v 1.92357 h -1.928989 v -1.49595 z m -3.3309,3.21428 0.92577,1.64119 -0.917332,1.60443 -0.925769,-1.6409 z m -7.360349,1.36003 0.448119,0.51622 -0.0389,3.93543 -0.457759,-0.44812 z m 14.573037,0 0.04851,4.00354 -0.457758,0.44812 -0.0389,-3.93543 z m -13.647571,0.68166 h 0.01446 l -0.01446,3e-4 z m 0.258265,0 h 4.630353 l 1.548977,2.74599 1.56947,-2.74599 h 4.456769 l 0.0046,4.58818 -2.415678,2.38433 h -3.595446 -0.19287 -3.595497 l -2.415678,-2.38433 z m 12.449372,0 h 0.01446 v 3e-4 z m -12.804972,9.60902 v 0.77721 h 5.196002 v -0.77721 z m 7.776219,0 v 0.77721 h 5.196003 v -0.77721 z"
       id="rect4549"
       inkscape:connector-curvature="0" />
    <text
       xml:space="preserve"
       style="font-style:normal;font-variant:normal;font-weight:normal;font-stretch:normal;font-size:11.37172794px;line-height:1.25;font-family:'Kingthings Petrock Light';-inkscape-font-specification:'Kingthings Petrock Light, ';letter-spacing:0px;word-spacing:0px;fill:#000000;fill-opacity:1;stroke:none;stroke-width:0.2842932"
       x="62.172676"
       y="46.486938"
       id="text4675"><tspan
         sodipodi:role="line"
         id="tspan4673"
         x="62.172676"
         y="46.486938"
         style="font-style:normal;font-variant:normal;font-weight:normal;font-stretch:normal;font-size:15.16230392px;font-family:'Kingthings Petrock Light';-inkscape-font-specification:'Kingthings Petrock Light, ';stroke-width:0.2842932">La chouette agence</tspan></text>
  </g>
</svg>
