<?xml version="1.0" encoding="UTF-8" standalone="no"?>
<!-- Created with Inkscape (http://www.inkscape.org/) -->

<svg
   xmlns:dc="http://purl.org/dc/elements/1.1/"
   xmlns:cc="http://creativecommons.org/ns#"
   xmlns:rdf="http://www.w3.org/1999/02/22-rdf-syntax-ns#"
   xmlns:svg="http://www.w3.org/2000/svg"
   xmlns="http://www.w3.org/2000/svg"
   xmlns:sodipodi="http://sodipodi.sourceforge.net/DTD/sodipodi-0.dtd"
   xmlns:inkscape="http://www.inkscape.org/namespaces/inkscape"
   width="66.14579mm"
   height="10.753521mm"
   viewBox="0 0 66.145792 10.753521"
   version="1.1"
   id="svg8"
   inkscape:version="0.92.4 (5da689c313, 2019-01-14)"
   sodipodi:docname="la-chouette-agence-logo.svg">
  <defs
     id="defs2">
    <inkscape:perspective
       sodipodi:type="inkscape:persp3d"
       inkscape:vp_x="0 : 148.49999 : 1"
       inkscape:vp_y="0 : 999.99993 : 0"
       inkscape:vp_z="210.00002 : 148.49999 : 1"
       inkscape:persp3d-origin="105 : 98.999994 : 1"
       id="perspective4568" />
  </defs>
  <sodipodi:namedview
     id="base"
     pagecolor="#ffffff"
     bordercolor="#666666"
     borderopacity="1.0"
     inkscape:pageopacity="0.0"
     inkscape:pageshadow="2"
     inkscape:zoom="1.4142136"
     inkscape:cx="252.76771"
     inkscape:cy="-100.47478"
     inkscape:document-units="mm"
     inkscape:current-layer="text4675"
     showgrid="false"
     inkscape:snap-global="true"
     inkscape:window-width="1920"
     inkscape:window-height="1027"
     inkscape:window-x="-8"
     inkscape:window-y="-8"
     inkscape:window-maximized="1"
     fit-margin-top="0"
     fit-margin-left="0"
     fit-margin-right="0"
     fit-margin-bottom="0" />
  <metadata
     id="metadata5">
    <rdf:RDF>
      <cc:Work
         rdf:about="">
        <dc:format>image/svg+xml</dc:format>
        <dc:type
           rdf:resource="http://purl.org/dc/dcmitype/StillImage" />
        <dc:title></dc:title>
      </cc:Work>
    </rdf:RDF>
  </metadata>
  <g
     inkscape:label="Calque 1"
     inkscape:groupmode="layer"
     id="layer1"
     transform="translate(-36.476152,-41.728589)">
    <g
       id="g826" />
    <path
       style="opacity:1;fill:#000000;fill-opacity:1;stroke:none;stroke-width:0.47970444;stroke-miterlimit:4;stroke-dasharray:none;stroke-opacity:1"
       d="m 36.786257,41.728589 -0.271975,0.310096 1.231043,1.079613 -1.259373,1.262988 -0.0098,1.441839 0.686796,0.769521 -0.01446,2.539995 1.987299,2.018184 h 2.004328 0.01385 2.004327 l 1.987302,-2.018184 -0.01446,-2.539995 0.686793,-0.769521 -0.0098,-1.441839 -1.231498,-1.23496 1.26314,-1.107641 -0.271975,-0.310096 -1.480718,1.298549 -2.430298,0.006 -0.506278,1.057312 v 2.91e-4 l -0.0069,-2.91e-4 -0.50628,-1.057312 -2.370177,-0.0059 z m 1.178457,1.710956 0.147814,0.0011 0.961935,0.843501 h -0.674439 v 1.709601 h 1.714572 v -0.797395 l 0.852087,0.747214 -0.546359,0.956056 h -2.453802 l -1.090913,-1.183586 -0.0095,-1.143204 z m 6.364665,0 1.098598,1.1331 -0.0095,1.143206 -1.090914,1.183575 H 41.92426 l -0.538675,-0.954551 0.845004,-0.741035 v 0.793021 h 1.714573 v -1.7096 h -0.669464 l 0.966151,-0.847265 z m -0.717231,0.0043 -2.433611,2.134211 -0.0015,-0.0025 -0.0015,0.0025 -2.43331,-2.13391 1.664397,0.0093 0.740434,1.474095 0.740435,-1.474095 z m -4.837085,1.214166 h 0.725667 l 0.238829,0.209445 v 0.75234 h -0.964496 z m 4.07435,0.003 h 0.720697 v 0.961784 H 42.605616 V 44.87482 Z m -1.66545,1.607139 0.462885,0.820595 -0.458666,0.802215 -0.462884,-0.82045 z m -3.680174,0.680015 0.224059,0.25811 -0.01945,1.967715 -0.228879,-0.22406 z m 7.286518,0 0.02426,2.00177 -0.228879,0.22406 -0.01945,-1.967715 z m -6.823785,0.34083 h 0.0072 l -0.0072,1.5e-4 z m 0.129132,0 h 2.315177 l 0.774488,1.372995 0.784736,-1.372995 h 2.228383 l 0.0023,2.29409 -1.207838,1.192165 h -1.797724 -0.09643 -1.797748 L 38.09313,49.583101 Z m 6.224686,0 h 0.0072 v 1.5e-4 z m -6.402485,4.80451 v 0.388605 h 2.598 v -0.388605 z m 3.888109,0 v 0.388605 h 2.598001 v -0.388605 z"
       id="rect4549"
       inkscape:connector-curvature="0" />
    <g
       aria-label="La chouette agence"
       style="font-style:normal;font-variant:normal;font-weight:normal;font-stretch:normal;font-size:11.37172794px;line-height:1.25;font-family:'Kingthings Petrock Light';-inkscape-font-specification:'Kingthings Petrock Light, ';letter-spacing:0px;word-spacing:0px;fill:#000000;fill-opacity:1;stroke:none;stroke-width:0.2842932"
       id="text4675">
      <path
         d="m 49.461377,44.975814 0.04812,0.103648 q 0.17028,-0.166578 0.233209,0.614489 l -0.01851,2.987299 q 0.0037,0.632996 0.307244,0.821785 l 0.459015,-0.377577 q 0.266525,-0.210999 0.577471,0.06293 0.314647,0.270227 0.610785,0.325753 l 0.518244,-0.525646 -0.07404,-0.08144 q -0.136964,0.10735 -0.244315,0.05922 -0.103648,-0.05183 -0.325753,-0.251718 -0.222104,-0.203595 -0.551558,-0.155472 l -0.599681,0.322051 q -0.06293,-0.229507 -0.05553,-0.44791 l -0.0074,-2.994703 q -0.0037,-0.655207 -0.325753,-0.81068 z"
         style="font-style:normal;font-variant:normal;font-weight:normal;font-stretch:normal;font-size:15.16230392px;font-family:'Kingthings Petrock Light';-inkscape-font-specification:'Kingthings Petrock Light, ';stroke-width:0.1421466"
         id="path817"
         inkscape:connector-curvature="0" />
      <path
         d="m 53.814618,46.164071 q -0.551559,0.0074 -1.010574,0.373875 -0.455314,0.36277 -0.225807,0.818084 l 0.603384,-0.366472 q -0.118455,-0.629295 0.651505,-0.562664 0.773662,0.06663 0.673716,1.010573 -0.599681,-0.270226 -1.077205,-0.155472 -0.473822,0.114753 -0.873609,0.599681 -0.31835,0.466418 -0.203595,0.795872 0.118455,0.329455 0.377576,0.570067 0.262824,0.236911 0.584874,0.259122 0.325753,0.02221 0.547857,-0.129561 0.222104,-0.151771 0.651505,-0.53305 0.03702,0.47012 0.303543,0.688523 l 0.603382,-0.521945 -0.04812,-0.08514 q -0.307244,0.248016 -0.340559,-0.577471 l 0.0037,-1.317818 q -0.0185,-0.49233 -0.344257,-0.681119 -0.325753,-0.19249 -0.877311,-0.185086 z m 0.529348,1.784236 0.148069,-0.199894 0.0037,0.873609 q -0.470121,0.47012 -0.806978,0.444209 -0.336858,-0.02961 -0.566366,-0.225807 -0.229507,-0.199893 -0.333156,-0.455313 -0.103648,-0.259122 0.04073,-0.503435 0.144367,-0.244315 0.570067,-0.285035 0.425699,-0.04072 0.943942,0.351666 z"
         style="font-style:normal;font-variant:normal;font-weight:normal;font-stretch:normal;font-size:15.16230392px;font-family:'Kingthings Petrock Light';-inkscape-font-specification:'Kingthings Petrock Light, ';stroke-width:0.1421466"
         id="path819"
         inkscape:connector-curvature="0" />
      <path
         d="m 58.930413,46.223299 q -0.207296,0.08144 -0.388681,0.199893 -0.181385,0.114754 -0.373875,0.270227 -1.23638,1.006872 -0.370174,2.239549 0.244315,0.299841 0.496033,0.433103 0.251717,0.12956 0.59968,0.12956 0.351665,0.0037 0.688524,-0.347963 0.340559,-0.351664 0.581172,-0.707031 l -0.118456,-0.103648 q -0.09254,0.122157 -0.236911,0.27763 -0.144368,0.151771 -0.359068,0.248016 -0.2147,0.09254 -0.484928,0.05923 -0.270227,-0.03331 -0.540453,-0.288735 -0.266524,-0.259122 -0.433103,-0.751452 -0.166578,-0.492331 0.02221,-0.777364 0.192491,-0.288735 0.551558,-0.381279 0.359069,-0.09254 0.603383,0.03331 0.244315,0.122157 0.462717,0.536752 l 0.433103,-0.36277 q -0.07033,-0.292437 -0.273929,-0.48863 -0.199893,-0.199893 -0.425699,-0.251717 -0.225805,-0.05183 -0.433103,0.03331 z"
         style="font-style:normal;font-variant:normal;font-weight:normal;font-stretch:normal;font-size:15.16230392px;font-family:'Kingthings Petrock Light';-inkscape-font-specification:'Kingthings Petrock Light, ';stroke-width:0.1421466"
         id="path821"
         inkscape:connector-curvature="0" />
      <path
         d="m 60.611001,44.864762 q 0.136964,0.244314 0.118456,0.732943 -0.0148,3.194597 0.04812,3.461122 0.06663,0.262823 0.322052,0.444208 l 0.473822,-0.403489 q -0.199894,-0.273928 -0.240613,-0.6404 -0.03702,-0.366472 0.0037,-1.391852 0.488629,-0.521945 1.099415,-0.533049 0.614488,-0.0111 0.521944,1.117922 -0.01851,1.110521 0.05183,1.369642 0.07404,0.259122 0.340561,0.466419 l 0.440506,-0.433103 q -0.210999,-0.03331 -0.262823,-0.47012 -0.05183,-0.440507 -0.0148,-1.217871 0.02591,-0.477523 -0.07774,-0.762557 -0.103648,-0.288735 -0.459014,-0.421998 -0.351666,-0.133262 -0.68112,-0.04072 -0.329454,0.08884 -0.551558,0.277629 -0.222105,0.188789 -0.392384,0.292437 l -0.0148,-1.462184 q 0.01851,-0.521945 -0.159174,-0.725541 z"
         style="font-style:normal;font-variant:normal;font-weight:normal;font-stretch:normal;font-size:15.16230392px;font-family:'Kingthings Petrock Light';-inkscape-font-specification:'Kingthings Petrock Light, ';stroke-width:0.1421466"
         id="path823"
         inkscape:connector-curvature="0" />
      <path
         d="m 65.415852,46.112246 q -0.621891,0.410893 -0.881013,0.714436 -0.25542,0.303541 -0.359068,0.610785 -0.103649,0.307244 -0.03702,0.769961 0.07033,0.462717 0.540453,0.892118 0.470121,0.4257 0.751452,0.4257 0.281332,0.0037 0.884715,-0.551559 0.233209,-0.210999 0.444208,-0.488629 0.214701,-0.281332 0.273928,-0.588576 0.06293,-0.307244 -0.03332,-0.670013 -0.09254,-0.36277 -0.529341,-0.792172 -0.436805,-0.4294 -1.054994,-0.322051 z m -0.196192,0.440507 q 0.425699,-0.09625 0.932837,0.533049 0.507138,0.629295 0.399787,1.077205 -0.10735,0.44791 -0.462717,0.718137 -0.355366,0.266524 -0.755153,-0.05922 -0.399788,-0.329455 -0.636699,-0.70333 -0.236911,-0.373875 -0.07034,-0.921732 0.166579,-0.551558 0.592278,-0.644102 z"
         style="font-style:normal;font-variant:normal;font-weight:normal;font-stretch:normal;font-size:15.16230392px;font-family:'Kingthings Petrock Light';-inkscape-font-specification:'Kingthings Petrock Light, ';stroke-width:0.1421466"
         id="path825"
         inkscape:connector-curvature="0" />
      <path
         d="m 70.905525,49.025511 -0.0481,-0.06293 q -0.34056,0.222105 -0.333155,-0.644102 0.09625,-1.573236 0.06293,-1.802744 -0.0333,-0.233209 -0.351665,-0.444208 l -0.584875,0.381279 0.0296,0.07404 q 0.299839,-0.173981 0.299839,0.373875 0,0.544155 -0.0407,1.569536 -0.71073,0.777363 -1.232674,0.621891 -0.518245,-0.159174 -0.44051,-1.188257 0.0185,-1.11052 -0.0074,-1.373344 -0.02591,-0.266524 -0.347965,-0.462716 l -0.562663,0.396086 0.04812,0.08514 q 0.259121,-0.133262 0.296138,0.373876 0.03702,0.507137 0,1.284501 -0.02591,0.477524 0.118456,0.795874 0.144367,0.314647 0.510841,0.444207 0.36647,0.129561 0.806975,-0.05923 0.44051,-0.188789 0.795875,-0.562663 -0.0481,0.514541 0.23691,0.707031 z"
         style="font-style:normal;font-variant:normal;font-weight:normal;font-stretch:normal;font-size:15.16230392px;font-family:'Kingthings Petrock Light';-inkscape-font-specification:'Kingthings Petrock Light, ';stroke-width:0.1421466"
         id="path827"
         inkscape:connector-curvature="0" />
      <path
         d="m 72.94888,46.193684 q -0.57747,-0.08884 -1.080905,0.359069 -0.503435,0.44791 -0.6441,1.051292 -0.140665,0.599681 0.08514,1.117924 0.229505,0.514541 0.847695,0.732944 0.503435,0.166577 1.04759,-0.236911 0.544155,-0.407191 0.603385,-0.725541 L 73.69663,48.40362 q -0.444205,0.632997 -0.866205,0.610786 -0.421995,-0.02221 -0.632995,-0.188788 -0.207295,-0.166579 -0.32205,-0.355367 l 1.02538,-0.681119 q 0.781065,-0.484927 0.70333,-0.995767 -0.07774,-0.510839 -0.65521,-0.599681 z m -1.317815,1.166046 q 0.0035,-0.340559 0.27763,-0.632996 0.27393,-0.292437 0.59598,-0.210998 0.32575,0.08144 0.45161,0.440506 0.12956,0.359068 -0.0296,0.551558 -0.159175,0.188789 -1.147534,0.74775 -0.08514,-0.196191 -0.118456,-0.377576 -0.0333,-0.181385 -0.0296,-0.518244 z"
         style="font-style:normal;font-variant:normal;font-weight:normal;font-stretch:normal;font-size:15.16230392px;font-family:'Kingthings Petrock Light';-inkscape-font-specification:'Kingthings Petrock Light, ';stroke-width:0.1421466"
         id="path829"
         inkscape:connector-curvature="0" />
      <path
         d="m 74.596155,45.127586 q 0.25912,-0.04442 0.17398,1.062397 l -0.310945,0.0148 -0.50714,0.510839 0.08514,0.144367 q 0.23691,-0.270226 0.688525,-0.225805 -0.07404,1.965621 0,2.258058 0.07404,0.288735 0.38868,0.595979 0.244315,-0.240613 0.93284,-0.747751 l -0.0444,-0.173981 q -0.703329,0.488629 -0.758854,0.0037 -0.05553,-0.484928 0.01109,-1.906394 h 0.451616 l 0.34056,-0.388681 -0.0296,-0.07404 -0.736644,0.01851 v -0.980957 q -0.0407,-0.31835 -0.218406,-0.470121 z"
         style="font-style:normal;font-variant:normal;font-weight:normal;font-stretch:normal;font-size:15.16230392px;font-family:'Kingthings Petrock Light';-inkscape-font-specification:'Kingthings Petrock Light, ';stroke-width:0.1421466"
         id="path831"
         inkscape:connector-curvature="0" />
      <path
         d="m 76.87642,45.127586 q 0.259125,-0.04442 0.173985,1.062397 l -0.310945,0.0148 -0.50714,0.510839 0.08514,0.144367 q 0.23691,-0.270226 0.688525,-0.225805 -0.07404,1.965621 0,2.258058 0.07404,0.288735 0.388679,0.595979 0.244316,-0.240613 0.932836,-0.747751 l -0.0444,-0.173981 q -0.703329,0.488629 -0.758855,0.0037 -0.05553,-0.484928 0.0111,-1.906394 h 0.451615 l 0.340555,-0.388681 -0.0296,-0.07404 -0.736645,0.01851 v -0.980957 q -0.0407,-0.31835 -0.218406,-0.470121 z"
         style="font-style:normal;font-variant:normal;font-weight:normal;font-stretch:normal;font-size:15.16230392px;font-family:'Kingthings Petrock Light';-inkscape-font-specification:'Kingthings Petrock Light, ';stroke-width:0.1421466"
         id="path833"
         inkscape:connector-curvature="0" />
      <path
         d="m 80.41158,46.193684 q -0.577476,-0.08884 -1.08091,0.359069 -0.503435,0.44791 -0.6441,1.051292 -0.140665,0.599681 0.08514,1.117924 0.229505,0.514541 0.847695,0.732944 0.50344,0.166577 1.047595,-0.236911 0.544155,-0.407191 0.60338,-0.725541 l -0.11105,-0.08884 q -0.44421,0.632997 -0.866211,0.610786 -0.421994,-0.02221 -0.632994,-0.188788 -0.207295,-0.166579 -0.32205,-0.355367 l 1.02538,-0.681119 q 0.781064,-0.484927 0.703329,-0.995767 -0.07773,-0.510839 -0.655204,-0.599682 z m -1.31782,1.166046 q 0.0035,-0.340559 0.277629,-0.632996 0.273931,-0.292437 0.595981,-0.210998 0.325749,0.08144 0.45161,0.440506 0.12956,0.359068 -0.0296,0.551558 -0.159176,0.188789 -1.14754,0.74775 -0.08514,-0.196191 -0.118456,-0.377576 -0.0333,-0.181385 -0.0296,-0.518244 z"
         style="font-style:normal;font-variant:normal;font-weight:normal;font-stretch:normal;font-size:15.16230392px;font-family:'Kingthings Petrock Light';-inkscape-font-specification:'Kingthings Petrock Light, ';stroke-width:0.1421466"
         id="path835"
         inkscape:connector-curvature="0" />
      <path
         d="m 84.761115,46.164071 q -0.55156,0.0074 -1.010575,0.373875 -0.45531,0.36277 -0.225805,0.818084 l 0.603384,-0.366472 q -0.118454,-0.629295 0.651506,-0.562664 0.77366,0.06663 0.673715,1.010573 -0.59968,-0.270226 -1.077205,-0.155472 -0.47382,0.114753 -0.87361,0.599681 -0.31835,0.466418 -0.203595,0.795872 0.118455,0.329455 0.377575,0.570067 0.262825,0.236911 0.584875,0.259122 0.325754,0.02221 0.54786,-0.129561 0.2221,-0.151771 0.651504,-0.53305 0.037,0.47012 0.303541,0.688523 l 0.603385,-0.521945 -0.0481,-0.08514 q -0.307245,0.248016 -0.34056,-0.577471 l 0.0035,-1.317818 q -0.0185,-0.49233 -0.344265,-0.681119 -0.32575,-0.19249 -0.87731,-0.185086 z m 0.52935,1.784236 0.148069,-0.199894 0.0035,0.873609 q -0.470121,0.47012 -0.806981,0.444209 -0.336854,-0.02961 -0.566365,-0.225807 -0.229504,-0.199893 -0.333155,-0.455313 -0.10365,-0.259122 0.0407,-0.503435 0.144365,-0.244315 0.570065,-0.285035 0.4257,-0.04072 0.943944,0.351666 z"
         style="font-style:normal;font-variant:normal;font-weight:normal;font-stretch:normal;font-size:15.16230392px;font-family:'Kingthings Petrock Light';-inkscape-font-specification:'Kingthings Petrock Light, ';stroke-width:0.1421466"
         id="path837"
         inkscape:connector-curvature="0" />
      <path
         d="m 89.173576,45.175708 q 0.540458,0.325752 0.07031,1.188256 -0.547854,-0.307244 -1.162344,-0.07034 -0.61449,0.23321 -0.966155,0.651506 -0.347959,0.418295 -0.355365,0.929135 -0.0035,0.507137 0.4294,0.821785 0.433105,0.310946 1.140138,-0.01851 0.129554,0.336858 0.462715,0.296139 0.333161,-0.04442 0.610786,0.122157 0.277634,0.166578 0.07771,0.655207 -0.196185,0.488629 -0.888412,0.496032 -0.692227,0.0111 -1.140136,-0.340559 -0.44421,-0.347963 -0.159175,-0.570067 l -0.06293,-0.08884 -0.68112,0.544155 q 0.414595,0.751452 1.117925,0.914328 0.703331,0.162877 1.17715,-0.114753 0.473827,-0.273929 0.68483,-0.507138 0.214694,-0.233209 0.362765,-0.53305 0.15177,-0.296138 0.103649,-0.703329 -0.04438,-0.410893 -0.584873,-0.451611 -0.540457,-0.04442 -0.444206,-0.107351 0.09624,-0.06293 0.23691,-0.210999 0.140666,-0.148069 0.366463,-0.581172 0.229513,-0.436805 -0.244306,-1.036485 0.755151,-0.651506 0.666313,-1.12903 -0.08885,-0.477523 -0.347971,-0.562664 z m -0.84029,1.365939 q 0.31835,0.111053 0.492336,0.351665 0.177676,0.236911 0.196185,0.699629 0.02219,0.462716 -0.336852,0.688522 -0.355368,0.225806 -0.69593,0.08884 -0.336855,-0.136964 -0.547856,-0.473822 -0.207295,-0.340559 -0.148069,-0.651504 0.05923,-0.314648 0.392385,-0.562664 0.333155,-0.251719 0.647801,-0.140667 z"
         style="font-style:normal;font-variant:normal;font-weight:normal;font-stretch:normal;font-size:15.16230392px;font-family:'Kingthings Petrock Light';-inkscape-font-specification:'Kingthings Petrock Light, ';stroke-width:0.1421466"
         id="path839"
         inkscape:connector-curvature="0" />
      <path
         d="m 92.035022,46.193684 q -0.577467,-0.08884 -1.080906,0.359069 -0.50344,0.44791 -0.644098,1.051292 -0.140666,0.599681 0.08514,1.117924 0.229504,0.514541 0.847695,0.732944 0.50344,0.166577 1.047588,-0.236911 0.544156,-0.407191 0.603381,-0.725541 l -0.111045,-0.08884 q -0.444215,0.632997 -0.866205,0.610786 -0.421999,-0.02221 -0.633002,-0.188788 -0.207297,-0.166579 -0.322049,-0.355367 l 1.02538,-0.681119 q 0.781065,-0.484927 0.703331,-0.995767 -0.07771,-0.510839 -0.65521,-0.599682 z m -1.317816,1.166046 q 0.0033,-0.340559 0.277626,-0.632996 0.273936,-0.292437 0.595984,-0.210998 0.325756,0.08144 0.451612,0.440506 0.129562,0.359068 -0.02959,0.551558 -0.159175,0.188789 -1.147537,0.74775 -0.08514,-0.196191 -0.118459,-0.377576 -0.03333,-0.181385 -0.02959,-0.518244 z"
         style="font-style:normal;font-variant:normal;font-weight:normal;font-stretch:normal;font-size:15.16230392px;font-family:'Kingthings Petrock Light';-inkscape-font-specification:'Kingthings Petrock Light, ';stroke-width:0.1421466"
         id="path841"
         inkscape:connector-curvature="0" />
      <path
         d="m 93.13074,46.530542 0.04812,0.06293 q 0.340566,-0.222104 0.333161,0.644102 -0.03699,1.573237 0.01105,1.821254 0.04812,0.244314 0.455318,0.440506 l 0.540457,-0.381279 -0.02959,-0.07404 q -0.299841,0.173981 -0.366472,-0.377578 -0.06665,-0.555259 -0.02593,-1.58064 0.710736,-0.777364 1.228978,-0.61819 0.52194,0.155473 0.444206,1.184555 -0.01853,1.110521 0.0073,1.377046 0.02593,0.262823 0.347963,0.459014 l 0.562664,-0.396085 -0.04812,-0.08514 q -0.259125,0.133261 -0.296135,-0.373876 -0.03699,-0.507138 0,-1.284501 0.02593,-0.477524 -0.118459,-0.792172 -0.144364,-0.318349 -0.510836,-0.447909 -0.36648,-0.129561 -0.80698,0.05922 -0.440507,0.188788 -0.795875,0.562663 0.03333,-0.455313 -0.25172,-0.647803 z"
         style="font-style:normal;font-variant:normal;font-weight:normal;font-stretch:normal;font-size:15.16230392px;font-family:'Kingthings Petrock Light';-inkscape-font-specification:'Kingthings Petrock Light, ';stroke-width:0.1421466"
         id="path843"
         inkscape:connector-curvature="0" />
      <path
         d="m 98.435323,46.223299 q -0.207297,0.08144 -0.388687,0.199893 -0.181383,0.114754 -0.373869,0.270227 -1.236384,1.006872 -0.370179,2.239549 0.244315,0.299841 0.496035,0.433103 0.251719,0.12956 0.599682,0.12956 0.351662,0.0037 0.688521,-0.347963 0.340558,-0.351664 0.581174,-0.707031 l -0.118459,-0.103648 q -0.09255,0.122157 -0.236909,0.27763 -0.144365,0.151771 -0.359067,0.248016 -0.214702,0.09254 -0.484922,0.05923 -0.270237,-0.03331 -0.540458,-0.288735 -0.266522,-0.259122 -0.433102,-0.751452 -0.166581,-0.492331 0.02219,-0.777364 0.192486,-0.288735 0.551561,-0.381279 0.359067,-0.09254 0.603381,0.03331 0.244315,0.122157 0.462715,0.536752 l 0.433103,-0.36277 q -0.07031,-0.292437 -0.273927,-0.48863 -0.199892,-0.199893 -0.425698,-0.251717 -0.225805,-0.05183 -0.43311,0.03331 z"
         style="font-style:normal;font-variant:normal;font-weight:normal;font-stretch:normal;font-size:15.16230392px;font-family:'Kingthings Petrock Light';-inkscape-font-specification:'Kingthings Petrock Light, ';stroke-width:0.1421466"
         id="path845"
         inkscape:connector-curvature="0" />
      <path
         d="m 101.76318,46.193684 q -0.57747,-0.08884 -1.0809,0.359069 -0.50344,0.44791 -0.64411,1.051292 -0.140666,0.599681 0.0851,1.117924 0.22951,0.514541 0.8477,0.732944 0.50344,0.166577 1.04759,-0.236911 0.54416,-0.407191 0.60338,-0.725541 l -0.11105,-0.08884 q -0.44421,0.632997 -0.86621,0.610786 -0.42199,-0.02221 -0.63299,-0.188788 -0.2073,-0.166579 -0.32205,-0.355367 l 1.02538,-0.681119 q 0.78107,-0.484927 0.70332,-0.995767 -0.0777,-0.510839 -0.6552,-0.599681 z m -1.31781,1.166046 q 0.003,-0.340559 0.27762,-0.632996 0.27393,-0.292437 0.59598,-0.210998 0.32575,0.08144 0.45162,0.440506 0.12955,0.359068 -0.0296,0.551558 -0.15918,0.188789 -1.14754,0.74775 -0.0851,-0.196191 -0.11846,-0.377576 -0.0333,-0.181385 -0.0296,-0.518244 z"
         style="font-style:normal;font-variant:normal;font-weight:normal;font-stretch:normal;font-size:15.16230392px;font-family:'Kingthings Petrock Light';-inkscape-font-specification:'Kingthings Petrock Light, ';stroke-width:0.1421466"
         id="path847"
         inkscape:connector-curvature="0" />
    </g>
  </g>
</svg>
